<svg xmlns="http://www.w3.org/2000/svg" version="1.1" xmlns:xlink="http://www.w3.org/1999/xlink" width="2000" height="150" viewBox="0 0 2000 150"><svg xml:space="preserve" width="2000" height="150" data-version="2" data-id="lg_kyHdh94WJ4IQaysrJW" viewBox="0 0 731 150" x="0" y="0"><rect width="100%" height="100%" fill="transparent"></rect><path fill="#9575cd" d="m45.993 128.543-2.026-7.562 13.806-3.697 3.017 11.26h7.161l-.274-1.024 63.691-17.067 4.847 18.092h7.16l-2.82-10.532 13.806-3.697 3.814 14.227h7.16L133.354 9.197h-7.16l1.673 6.243-13.807 3.7-2.663-9.943h-7.16l.876 3.268L41.42 29.531 35.973 9.197h-7.16l2.468 9.21-13.806 3.699-3.46-12.907h-7.16l31.977 119.346h7.161zm-4.173-15.578-3.94-14.698 13.808-3.698 3.937 14.697zm110.393-6.666-13.804 3.698-3.94-14.698 13.807-3.701zm-6.084-22.713-13.806 3.698-3.939-14.7 13.806-3.698zm-6.088-22.717-13.804 3.7-3.94-14.699 13.807-3.699zm-10.024-37.414 3.938 14.698-13.806 3.7-3.939-14.699zm-20.131 6.827 16.708 62.355L62.903 109.7 46.194 47.348zm-90.264-.16 13.806-3.7 3.939 14.7-13.808 3.698zm6.085 22.715 13.807-3.7 3.939 14.7-13.806 3.7zm6.088 22.716 13.805-3.7 3.94 14.7-13.808 3.697zm229.509 30.397q-7.47 6.43-16.73 9.86-9.26 3.44-19.2 3.44-7.62 0-14.68-1.98t-13.22-5.6q-6.17-3.63-11.25-8.71-5.08-5.08-8.7-11.24-3.62-6.16-5.6-13.22-1.98-7.06-1.98-14.68t1.98-14.72q1.98-7.1 5.6-13.26 3.62-6.16 8.7-11.24 5.08-5.08 11.25-8.71 6.16-3.62 13.22-5.6 7.06-1.98 14.68-1.98 9.94 0 19.2 3.4t16.73 9.9l-11.35 18.67q-4.71-5.08-11.13-7.8-6.43-2.73-13.45-2.73-7.1 0-13.3 2.69-6.2 2.69-10.83 7.28-4.63 4.6-7.32 10.84-2.69 6.23-2.69 13.26 0 7.02 2.69 13.18 2.69 6.17 7.32 10.8 4.63 4.63 10.83 7.32 6.2 2.69 13.3 2.69 7.02 0 13.45-2.73 6.42-2.73 11.13-7.81Z"></path><rect width="91.36" height="110.94" x="-45.68" y="-55.47" fill="none" rx="0" ry="0" transform="translate(216.12 64.28)"></rect><path fill="#9575cd" d="M291.934 116.93h-20.39V36.92h4.93l6.72 9.49q4.93-4.48 11.21-6.91 6.27-2.43 13-2.43h18v20.32h-18q-3.21 0-6.05 1.2-2.84 1.19-4.93 3.28-2.1 2.1-3.29 4.94-1.2 2.83-1.2 6.05Z"></path><rect width="53.86" height="80.01" x="-26.93" y="-40.01" fill="none" rx="0" ry="0" transform="translate(298.97 77.42)"></rect><path fill="#9575cd" d="M358.954 15.18q0 2.84-1.09 5.31-1.08 2.46-2.95 4.29t-4.37 2.92q-2.5 1.08-5.34 1.08t-5.34-1.08q-2.5-1.09-4.33-2.92-1.84-1.83-2.92-4.29-1.08-2.47-1.08-5.31 0-2.76 1.08-5.26 1.08-2.51 2.92-4.34 1.83-1.83 4.33-2.91t5.34-1.08q2.84 0 5.34 1.08t4.37 2.91q1.87 1.83 2.95 4.34 1.09 2.5 1.09 5.26m-3.52 101.75h-20.54V36.92h20.54Z"></path><rect width="27.42" height="115.34" x="-13.71" y="-57.67" fill="none" rx="0" ry="0" transform="translate(345.74 59.76)"></rect><path fill="#9575cd" d="M411.094 116.93q-7.39 0-13.89-2.8-6.5-2.8-11.4-7.69-4.89-4.9-7.69-11.4-2.8-6.5-2.8-13.89V57.39h-9.94V37.07h9.94V5.1h20.32v31.97h30.93v20.32h-30.93v23.76q0 3.21 1.19 6.01 1.2 2.8 3.29 4.9 2.09 2.09 4.93 3.32t6.05 1.23h15.47v20.32Z"></path><rect width="61.19" height="111.83" x="-30.59" y="-55.91" fill="none" rx="0" ry="0" transform="translate(396.47 61.52)"></rect><path fill="#9575cd" d="M462.044 15.18q0 2.84-1.08 5.31-1.09 2.46-2.95 4.29-1.87 1.83-4.37 2.92-2.51 1.08-5.34 1.08-2.84 0-5.35-1.08-2.5-1.09-4.33-2.92-1.83-1.83-2.91-4.29-1.09-2.47-1.09-5.31 0-2.76 1.09-5.26 1.08-2.51 2.91-4.34t4.33-2.91q2.51-1.08 5.35-1.08 2.83 0 5.34 1.08 2.5 1.08 4.37 2.91 1.86 1.83 2.95 4.34 1.08 2.5 1.08 5.26m-3.51 101.75h-20.54V36.92h20.54Z"></path><rect width="27.42" height="115.34" x="-13.71" y="-57.67" fill="none" rx="0" ry="0" transform="translate(448.83 59.76)"></rect><path fill="#9575cd" d="M551.544 147.41h-20.54v-35.86q-2.32 1.35-4.75 2.62t-5 2.28q-2.58 1.01-5.23 1.6-2.65.6-5.34.6-8.45 0-15.88-3.1-7.43-3.1-13-8.7-5.56-5.61-8.78-13.41-3.21-7.81-3.21-17.22 0-9.49 3.21-17.3 3.22-7.8 8.78-13.33 5.57-5.53 13-8.56 7.43-3.02 15.88-3.02 3.88 0 7.65.97 3.78.97 7.36 2.65 3.59 1.68 6.84 4 3.25 2.31 6.16 4.93l7.92-9.49h4.93Zm-20.54-71.19q0-4.19-1.61-8.11-1.61-3.92-4.37-6.95-2.76-3.02-6.46-4.85-3.7-1.83-7.88-1.83-4.19 0-7.89 1.53-3.69 1.53-6.42 4.37t-4.3 6.84q-1.57 3.99-1.57 9 0 5.15 1.57 9.22 1.57 4.08 4.3 6.84 2.73 2.76 6.42 4.22 3.7 1.46 7.89 1.46 4.18 0 7.88-1.83t6.46-4.86q2.76-3.02 4.37-6.95 1.61-3.92 1.61-8.1"></path><rect width="81.73" height="113.4" x="-40.87" y="-56.7" fill="none" rx="0" ry="0" transform="translate(511.18 91.21)"></rect><path fill="#9575cd" d="M625.874 107.6q-2.46 2.24-5.26 4.22-2.8 1.98-5.87 3.43-3.06 1.46-6.31 2.32-3.25.86-6.61.86-7.4 0-13.9-2.62-6.5-2.61-11.39-7.43-4.89-4.82-7.69-11.73-2.81-6.91-2.81-15.5V36.92h20.32v44.23q0 4.03 1.24 7.21 1.23 3.17 3.32 5.34t4.89 3.29q2.81 1.12 6.02 1.12 3.14 0 5.94-1.46 2.8-1.46 4.89-3.85t3.29-5.41q1.19-3.03 1.19-6.24V36.92h20.4v80.01h-4.93Z"></path><rect width="71.5" height="81.51" x="-35.75" y="-40.76" fill="none" rx="0" ry="0" transform="translate(602.28 78.17)"></rect><path fill="#9575cd" d="M684.894 97.36q1.2.37 2.39.49 1.2.11 2.39.11 2.99 0 5.76-.82 2.76-.83 5.19-2.36 2.43-1.53 4.33-3.73 1.91-2.21 3.1-4.9l14.94 15.02q-2.84 4.03-6.53 7.25-3.7 3.21-8 5.45-4.29 2.24-9.04 3.4-4.74 1.16-9.75 1.16-8.44 0-15.87-3.14t-13-8.74q-5.57-5.6-8.78-13.34-3.21-7.73-3.21-16.99 0-9.49 3.21-17.33 3.21-7.85 8.78-13.38 5.57-5.52 13-8.59 7.43-3.06 15.87-3.06 5.01 0 9.79 1.19 4.78 1.2 9.08 3.44 4.29 2.24 8.03 5.49 3.73 3.25 6.57 7.29Zm10.46-42.06q-1.42-.52-2.8-.67-1.38-.15-2.88-.15-4.18 0-7.88 1.53t-6.42 4.37q-2.73 2.84-4.3 6.84-1.57 3.99-1.57 9 0 1.12.11 2.54.12 1.42.38 2.87.26 1.46.63 2.81.38 1.34.97 2.39Z"></path><rect width="74.33" height="84.57" x="-37.16" y="-42.28" fill="none" rx="0" ry="0" transform="translate(686.48 76.64)"></rect></svg></svg>